<mxfile host="Electron" modified="2024-02-27T12:14:01.190Z" agent="Mozilla/5.0 (Windows NT 10.0; Win64; x64) AppleWebKit/537.36 (KHTML, like Gecko) draw.io/23.1.5 Chrome/120.0.6099.109 Electron/28.1.0 Safari/537.36" etag="C5e6Cl-mkJiBrJQUrY0N" version="23.1.5" type="device">
  <diagram name="Page-1" id="E4MS3hRZulyTGoS9u9fE">
    <mxGraphModel dx="1036" dy="614" grid="1" gridSize="10" guides="1" tooltips="1" connect="1" arrows="1" fold="1" page="1" pageScale="1" pageWidth="850" pageHeight="1100" math="0" shadow="0">
      <root>
        <mxCell id="0" />
        <mxCell id="1" parent="0" />
        <mxCell id="1ZsHXfUt3pOsQtf5Unxh-1" value="" style="rounded=0;whiteSpace=wrap;html=1;" parent="1" vertex="1">
          <mxGeometry x="40" y="40" width="760" height="470" as="geometry" />
        </mxCell>
        <mxCell id="1ZsHXfUt3pOsQtf5Unxh-16" value="Username" style="text;html=1;align=center;verticalAlign=middle;whiteSpace=wrap;rounded=0;" parent="1" vertex="1">
          <mxGeometry x="690" y="45" width="100" height="30" as="geometry" />
        </mxCell>
        <mxCell id="1ZsHXfUt3pOsQtf5Unxh-17" value="Max pontszám: &lt;font style=&quot;background-color: rgb(153, 153, 153);&quot; color=&quot;#999999&quot;&gt;X&lt;/font&gt;%" style="text;html=1;align=center;verticalAlign=middle;whiteSpace=wrap;rounded=0;" parent="1" vertex="1">
          <mxGeometry x="570" y="45" width="120" height="30" as="geometry" />
        </mxCell>
        <mxCell id="1ZsHXfUt3pOsQtf5Unxh-18" value="" style="rounded=0;whiteSpace=wrap;html=1;" parent="1" vertex="1">
          <mxGeometry x="230" y="120" width="390" height="90" as="geometry" />
        </mxCell>
        <mxCell id="1ZsHXfUt3pOsQtf5Unxh-27" value="Eredmény: &lt;font style=&quot;background-color: rgb(153, 153, 153);&quot; color=&quot;#999999&quot;&gt;X&lt;/font&gt;%" style="text;html=1;align=center;verticalAlign=middle;whiteSpace=wrap;rounded=0;fontSize=20;" parent="1" vertex="1">
          <mxGeometry x="330" y="230" width="190" height="30" as="geometry" />
        </mxCell>
        <mxCell id="1ZsHXfUt3pOsQtf5Unxh-28" value="&lt;font style=&quot;background-color: rgb(153, 153, 153);&quot; color=&quot;#999999&quot;&gt;Sikeres/Sikertelen&lt;/font&gt;" style="text;html=1;align=center;verticalAlign=middle;whiteSpace=wrap;rounded=0;fontSize=14;" parent="1" vertex="1">
          <mxGeometry x="365" y="300" width="120" height="30" as="geometry" />
        </mxCell>
        <mxCell id="1ZsHXfUt3pOsQtf5Unxh-29" value="Kilépés" style="rounded=0;whiteSpace=wrap;html=1;fontSize=16;" parent="1" vertex="1">
          <mxGeometry x="250" y="370" width="150" height="50" as="geometry" />
        </mxCell>
        <mxCell id="1ZsHXfUt3pOsQtf5Unxh-30" value="Újra próbálom" style="rounded=0;whiteSpace=wrap;html=1;fontSize=16;" parent="1" vertex="1">
          <mxGeometry x="450" y="370" width="150" height="50" as="geometry" />
        </mxCell>
        <mxCell id="1ZsHXfUt3pOsQtf5Unxh-31" value="&lt;font style=&quot;background-color: rgb(153, 153, 153);&quot; color=&quot;#999999&quot;&gt;Helyes&lt;/font&gt;/&lt;font style=&quot;background-color: rgb(153, 153, 153);&quot; color=&quot;#999999&quot;&gt;Összes&lt;/font&gt;" style="text;html=1;align=center;verticalAlign=middle;whiteSpace=wrap;rounded=0;" parent="1" vertex="1">
          <mxGeometry x="690" y="150" width="60" height="30" as="geometry" />
        </mxCell>
        <mxCell id="K0G1NDZc7zXQzWbsBTml-1" value="" style="endArrow=none;html=1;rounded=0;exitX=0;exitY=1;exitDx=0;exitDy=0;entryX=1;entryY=0;entryDx=0;entryDy=0;" edge="1" parent="1" source="1ZsHXfUt3pOsQtf5Unxh-18" target="1ZsHXfUt3pOsQtf5Unxh-18">
          <mxGeometry width="50" height="50" relative="1" as="geometry">
            <mxPoint x="400" y="340" as="sourcePoint" />
            <mxPoint x="450" y="290" as="targetPoint" />
          </mxGeometry>
        </mxCell>
        <mxCell id="K0G1NDZc7zXQzWbsBTml-2" value="" style="endArrow=none;html=1;rounded=0;exitX=0;exitY=0;exitDx=0;exitDy=0;entryX=1;entryY=1;entryDx=0;entryDy=0;" edge="1" parent="1" source="1ZsHXfUt3pOsQtf5Unxh-18" target="1ZsHXfUt3pOsQtf5Unxh-18">
          <mxGeometry width="50" height="50" relative="1" as="geometry">
            <mxPoint x="400" y="340" as="sourcePoint" />
            <mxPoint x="450" y="290" as="targetPoint" />
          </mxGeometry>
        </mxCell>
      </root>
    </mxGraphModel>
  </diagram>
</mxfile>
